<?xml version="1.0" encoding="UTF-8"?>
<svg xmlns="http://www.w3.org/2000/svg" xmlns:xlink="http://www.w3.org/1999/xlink" width="700px" height="696px" viewBox="0 0 700 696" version="1.1">
<defs>
<filter id="alpha" filterUnits="objectBoundingBox" x="0%" y="0%" width="100%" height="100%">
  <feColorMatrix type="matrix" in="SourceGraphic" values="0 0 0 0 1 0 0 0 0 1 0 0 0 0 1 0 0 0 1 0"/>
</filter>
<mask id="mask0">
  <g filter="url(#alpha)">
<rect x="0" y="0" width="700" height="696" style="fill:rgb(0%,0%,0%);fill-opacity:0.980392;stroke:none;"/>
  </g>
</mask>
<clipPath id="clip1">
  <rect x="0" y="0" width="700" height="696"/>
</clipPath>
<g id="surface5" clip-path="url(#clip1)">
<path style=" stroke:none;fill-rule:nonzero;fill:rgb(92.941176%,9.803922%,26.666667%);fill-opacity:1;" d="M 621.464844 228.914062 L 529.476562 228.914062 C 523.683594 228.933594 518.992188 233.996094 518.976562 240.25 L 518.976562 266.96875 L 544.496094 266.96875 L 544.496094 262.605469 C 544.496094 259.21875 547.035156 256.472656 550.171875 256.472656 L 600.785156 256.472656 C 603.921875 256.472656 606.464844 259.21875 606.464844 262.605469 L 606.464844 266.96875 L 632.003906 266.96875 L 632.003906 240.25 C 631.980469 233.984375 627.269531 228.914062 621.464844 228.914062 Z M 621.464844 228.914062 "/>
<path style=" stroke:none;fill-rule:nonzero;fill:rgb(92.941176%,9.803922%,26.666667%);fill-opacity:1;" d="M 606.449219 314.648438 C 606.445312 318.03125 603.902344 320.773438 600.769531 320.777344 L 550.15625 320.777344 C 547.019531 320.773438 544.480469 318.03125 544.476562 314.648438 L 544.476562 310.285156 L 518.957031 310.285156 L 518.957031 336.996094 C 518.972656 343.25 523.664062 348.320312 529.457031 348.335938 L 621.449219 348.335938 C 627.261719 348.347656 631.984375 343.273438 632.003906 336.996094 L 632.003906 310.285156 L 606.449219 310.285156 Z M 606.449219 314.648438 "/>
<path style=" stroke:none;fill-rule:nonzero;fill:rgb(92.941176%,9.803922%,26.666667%);fill-opacity:1;" d="M 518.957031 274.847656 L 544.480469 274.847656 L 544.480469 302.40625 L 518.957031 302.40625 Z M 518.957031 274.847656 "/>
<path style=" stroke:none;fill-rule:nonzero;fill:rgb(92.941176%,9.803922%,26.666667%);fill-opacity:1;" d="M 606.449219 274.847656 L 631.972656 274.847656 L 631.972656 302.40625 L 606.449219 302.40625 Z M 606.449219 274.847656 "/>
</g>
<linearGradient id="linear0" gradientUnits="userSpaceOnUse" x1="-1211.5643" y1="1173.4175" x2="-1232.0594" y2="1233.965" gradientTransform="matrix(1.624754,0,0,1.625162,2144.13065,-1374.727064)">
<stop offset="0" style="stop-color:rgb(6.666667%,29.019608%,54.509804%);stop-opacity:1;"/>
<stop offset="1" style="stop-color:rgb(2.352941%,41.176471%,73.72549%);stop-opacity:1;"/>
</linearGradient>
<linearGradient id="linear1" gradientUnits="userSpaceOnUse" x1="-1205.1624" y1="1201.6334" x2="-1209.9031" y2="1203.2365" gradientTransform="matrix(1.624754,0,0,1.625162,2144.13065,-1374.727064)">
<stop offset="0" style="stop-color:rgb(0%,0%,0%);stop-opacity:0.301961;"/>
<stop offset="0.071" style="stop-color:rgb(0%,0%,0%);stop-opacity:0.2;"/>
<stop offset="0.321" style="stop-color:rgb(0%,0%,0%);stop-opacity:0.101961;"/>
<stop offset="0.623" style="stop-color:rgb(0%,0%,0%);stop-opacity:0.0509804;"/>
<stop offset="1" style="stop-color:rgb(0%,0%,0%);stop-opacity:0;"/>
</linearGradient>
<linearGradient id="linear2" gradientUnits="userSpaceOnUse" x1="-1207.6221" y1="1171.5963" x2="-1185.1245" y2="1231.5337" gradientTransform="matrix(1.624754,0,0,1.625162,2144.13065,-1374.727064)">
<stop offset="0" style="stop-color:rgb(23.529412%,79.607843%,95.686275%);stop-opacity:1;"/>
<stop offset="1" style="stop-color:rgb(15.686275%,57.254902%,87.45098%);stop-opacity:1;"/>
</linearGradient>
</defs>
<g id="surface1">
<path style=" stroke:none;fill-rule:nonzero;fill:rgb(94.901961%,94.901961%,94.901961%);fill-opacity:1;" d="M 254.328125 92.5 C 252.597656 89.582031 245.117188 92.707031 243.742188 90.058594 C 242.371094 87.421875 249.320312 83.402344 253.292969 74.222656 C 254.007812 72.566406 258.523438 62.132812 255.179688 58.914062 C 248.847656 52.8125 219.867188 77.996094 209.726562 69.753906 C 207.5 67.945312 205.945312 64.335938 199.210938 58.472656 C 196.53125 56.140625 194.910156 55.089844 193.339844 55.480469 C 191.117188 56.035156 190.941406 59.015625 188.554688 64.871094 C 184.976562 73.65625 182.859375 73.125 180.773438 80.132812 C 179.226562 85.335938 179.578125 88.359375 177.757812 88.949219 C 175.179688 89.785156 172.808594 84.265625 169.542969 84.761719 C 166.207031 85.265625 164.195312 91.6875 163.558594 96.5 C 162.363281 105.527344 165.675781 111.484375 167.515625 117.746094 C 169.511719 124.554688 170.695312 134.90625 166.085938 149.5625 L 120.453125 278.160156 C 130.527344 251.773438 159.695312 179.4375 171.953125 152.554688 C 175.492188 144.796875 179.398438 136.925781 187.421875 133.816406 C 195.144531 130.828125 205.75 132.613281 219.273438 129.355469 C 220.851562 128.972656 225.234375 127.859375 225.785156 125.28125 C 226.242188 123.148438 223.664062 121.957031 224.0625 119.960938 C 224.59375 117.285156 229.660156 117.25 235.890625 114.160156 C 240.285156 111.984375 243.019531 109.390625 245.375 107.164062 C 246.082031 106.492188 256.628906 96.382812 254.328125 92.5 Z M 254.328125 92.5 "/>
<path style=" stroke:none;fill-rule:nonzero;fill:rgb(94.901961%,94.901961%,94.901961%);fill-opacity:1;" d="M 74.796875 160.199219 C 72.867188 160.207031 72.242188 164.78125 70.546875 164.695312 C 68.855469 164.605469 68.890625 160.035156 65.53125 155.433594 C 64.925781 154.605469 61.109375 149.378906 58.566406 150.089844 C 53.742188 151.4375 57.738281 172.933594 50.769531 175.535156 C 49.238281 176.105469 47.019531 175.824219 42.199219 177.441406 C 40.28125 178.085938 39.296875 178.574219 39.035156 179.460938 C 38.667969 180.710938 40.078125 181.65625 42.265625 184.519531 C 45.542969 188.8125 44.671875 189.695312 47.507812 192.742188 C 49.613281 195.003906 51.199219 195.703125 50.964844 196.765625 C 50.628906 198.273438 47.238281 197.84375 46.539062 199.589844 C 45.824219 201.371094 48.394531 204.214844 50.570312 205.917969 C 54.65625 209.109375 58.535156 209.199219 62.140625 210.105469 C 66.054688 211.089844 71.476562 213.492188 77.335938 219.984375 L 127.273438 279.492188 C 117.230469 266.933594 90.152344 231.742188 80.5 217.96875 C 77.710938 213.992188 74.976562 209.804688 75.769531 204.96875 C 76.527344 200.3125 80.464844 195.621094 82.769531 188.042969 C 83.035156 187.15625 83.753906 184.683594 82.648438 183.671875 C 81.734375 182.832031 80.40625 183.753906 79.539062 182.984375 C 78.378906 181.949219 79.828125 179.453125 80.109375 175.5 C 80.304688 172.714844 79.824219 170.625 79.410156 168.828125 C 79.285156 168.285156 77.367188 160.191406 74.796875 160.199219 Z M 74.796875 160.199219 "/>
<path style=" stroke:none;fill-rule:nonzero;fill:rgb(94.901961%,94.901961%,94.901961%);fill-opacity:1;" d="M 113.308594 168.847656 L 112.144531 158.464844 L 112.675781 157.675781 C 115.132812 154.035156 116.386719 150.480469 116.402344 147.105469 C 116.40625 146.570312 116.378906 146.035156 116.355469 145.488281 C 116.253906 143.320312 116.128906 140.628906 117.53125 137.488281 C 118.320312 135.738281 120.53125 131.6875 123.855469 132.191406 C 124.75 132.316406 125.425781 132.726562 125.9375 133.207031 C 126.015625 133.085938 126.09375 132.96875 126.175781 132.835938 C 127.210938 131.257812 128.03125 130.582031 128.820312 129.929688 C 129.425781 129.425781 130.050781 128.910156 131.035156 127.6875 C 131.464844 127.152344 131.800781 126.679688 132.085938 126.285156 C 132.945312 125.085938 134.066406 123.65625 136.046875 123.679688 C 138.164062 123.78125 139.269531 125.53125 140.003906 126.691406 C 141.316406 128.753906 141.910156 130.246094 142.304688 131.230469 C 142.445312 131.59375 142.609375 132 142.691406 132.125 C 143.375 133.128906 148.914062 132.191406 151.003906 131.847656 C 155.691406 131.066406 159.75 130.390625 161.421875 133.347656 C 162.621094 135.464844 161.730469 138.261719 158.699219 141.886719 C 157.753906 143.015625 156.746094 143.871094 155.855469 144.542969 C 156.59375 144.984375 157.257812 145.664062 157.523438 146.726562 C 158.15625 149.242188 155.992188 151.765625 151.097656 154.230469 C 149.882812 154.847656 148.246094 155.671875 145.953125 156.066406 C 144.871094 156.253906 143.898438 156.296875 143.066406 156.324219 C 143.050781 156.804688 142.9375 157.324219 142.644531 157.863281 C 141.785156 159.441406 139.996094 160.191406 137.296875 160.011719 C 134.332031 159.855469 131.886719 159.289062 129.730469 158.792969 C 127.847656 158.363281 126.226562 157.996094 124.953125 158.082031 C 122.59375 158.273438 120.773438 160.164062 118.636719 162.613281 Z M 113.308594 168.847656 "/>
<path style=" stroke:none;fill-rule:nonzero;fill:rgb(94.901961%,94.901961%,94.901961%);fill-opacity:1;" d="M 118.703125 107.019531 L 108.953125 110.78125 L 108.058594 110.464844 C 103.914062 109.011719 100.160156 108.699219 96.890625 109.539062 C 96.371094 109.675781 95.859375 109.835938 95.339844 109.996094 C 93.269531 110.644531 90.695312 111.449219 87.304688 110.886719 C 85.414062 110.570312 80.933594 109.457031 80.578125 106.113281 C 80.472656 105.21875 80.695312 104.457031 81.03125 103.839844 C 80.898438 103.796875 80.761719 103.75 80.613281 103.703125 C 78.824219 103.105469 77.960938 102.484375 77.128906 101.882812 C 76.492188 101.425781 75.832031 100.949219 74.402344 100.308594 C 73.773438 100.027344 73.230469 99.824219 72.777344 99.648438 C 71.398438 99.121094 69.734375 98.398438 69.253906 96.476562 C 68.816406 94.402344 70.226562 92.886719 71.160156 91.882812 C 72.828125 90.089844 74.117188 89.136719 74.972656 88.507812 C 75.285156 88.277344 75.636719 88.015625 75.734375 87.90625 C 76.53125 86.992188 74.21875 81.867188 73.359375 79.933594 C 71.414062 75.59375 69.730469 71.839844 72.167969 69.472656 C 73.910156 67.777344 76.839844 67.925781 81.117188 69.941406 C 82.445312 70.570312 83.53125 71.324219 84.40625 72.019531 C 84.648438 71.191406 85.132812 70.378906 86.09375 69.851562 C 88.367188 68.601562 91.355469 70.054688 94.980469 74.164062 C 95.886719 75.183594 97.097656 76.558594 98.0625 78.675781 C 98.515625 79.675781 98.804688 80.605469 99.039062 81.402344 C 99.511719 81.296875 100.042969 81.273438 100.636719 81.421875 C 102.382812 81.855469 103.5625 83.394531 104.074219 86.050781 C 104.675781 88.960938 104.746094 91.46875 104.8125 93.679688 C 104.875 95.609375 104.933594 97.273438 105.335938 98.480469 C 106.121094 100.71875 108.410156 102 111.324219 103.445312 Z M 118.703125 107.019531 "/>
<path style=" stroke:none;fill-rule:nonzero;fill:rgb(94.901961%,94.901961%,94.901961%);fill-opacity:1;" d="M 113.308594 76.429688 L 112.144531 66.046875 L 112.675781 65.257812 C 115.132812 61.617188 116.386719 58.0625 116.402344 54.6875 C 116.40625 54.152344 116.378906 53.617188 116.355469 53.070312 C 116.253906 50.902344 116.128906 48.210938 117.53125 45.070312 C 118.320312 43.320312 120.53125 39.269531 123.855469 39.773438 C 124.75 39.898438 125.425781 40.308594 125.9375 40.789062 C 126.015625 40.667969 126.09375 40.546875 126.175781 40.417969 C 127.210938 38.839844 128.03125 38.164062 128.820312 37.511719 C 129.425781 37.007812 130.050781 36.492188 131.035156 35.269531 C 131.464844 34.734375 131.800781 34.261719 132.085938 33.863281 C 132.945312 32.667969 134.066406 31.238281 136.046875 31.261719 C 138.164062 31.363281 139.269531 33.113281 140.003906 34.269531 C 141.316406 36.335938 141.910156 37.828125 142.304688 38.8125 C 142.445312 39.175781 142.609375 39.582031 142.691406 39.707031 C 143.375 40.710938 148.914062 39.773438 151.003906 39.429688 C 155.691406 38.648438 159.75 37.972656 161.421875 40.929688 C 162.621094 43.046875 161.730469 45.84375 158.699219 49.46875 C 157.753906 50.597656 156.746094 51.453125 155.855469 52.125 C 156.59375 52.566406 157.257812 53.246094 157.523438 54.308594 C 158.15625 56.824219 155.992188 59.347656 151.097656 61.8125 C 149.882812 62.429688 148.246094 63.253906 145.953125 63.648438 C 144.871094 63.832031 143.898438 63.878906 143.066406 63.902344 C 143.050781 64.386719 142.9375 64.90625 142.644531 65.445312 C 141.785156 67.023438 139.996094 67.773438 137.296875 67.59375 C 134.332031 67.4375 131.886719 66.871094 129.730469 66.375 C 127.847656 65.945312 126.226562 65.578125 124.953125 65.664062 C 122.59375 65.855469 120.773438 67.746094 118.636719 70.195312 Z M 113.308594 76.429688 "/>
<path style=" stroke:none;fill-rule:nonzero;fill:rgb(94.901961%,94.901961%,94.901961%);fill-opacity:1;" d="M 123.929688 277.992188 L 121.753906 276.628906 L 121.226562 274.117188 L 121.753906 276.628906 L 119.21875 276.917969 C 119.175781 276.683594 119.039062 276.140625 118.832031 275.292969 C 117.695312 270.652344 114.234375 256.523438 111.347656 234.269531 C 109.332031 218.738281 108.191406 202.765625 107.957031 186.796875 C 107.71875 170.804688 108.476562 158.695312 109.082031 148.960938 C 109.542969 141.621094 110.097656 134.632812 110.644531 127.824219 C 112.097656 109.632812 113.46875 92.449219 112.449219 73.425781 C 112.222656 69.179688 111.75 60.339844 106.585938 50.933594 C 103.59375 45.476562 99.46875 40.632812 94.324219 36.542969 L 97.523438 32.519531 C 103.199219 37.042969 107.761719 42.410156 111.089844 48.464844 C 116.8125 58.894531 117.328125 68.527344 117.578125 73.15625 C 118.617188 92.515625 117.230469 109.863281 115.761719 128.230469 C 115.21875 135.011719 114.664062 141.972656 114.207031 149.28125 C 113.605469 158.925781 112.855469 170.929688 113.089844 186.71875 C 113.320312 202.496094 114.449219 218.269531 116.433594 233.609375 C 119.289062 255.578125 122.699219 269.5 123.820312 274.070312 C 124.414062 276.511719 124.539062 277.023438 123.929688 277.992188 Z M 123.929688 277.992188 "/>
<path style=" stroke:none;fill-rule:nonzero;fill:rgb(94.901961%,94.901961%,94.901961%);fill-opacity:1;" d="M 84.910156 44.699219 C 84.699219 44.699219 84.484375 44.695312 84.269531 44.679688 C 79.898438 44.445312 75.851562 41.828125 72.238281 36.902344 C 70.542969 34.585938 69.675781 31.945312 67.945312 26.675781 C 67.679688 25.863281 66.375 21.742188 65.582031 16.070312 C 65.0625 12.363281 65.128906 10.816406 65.863281 9.445312 C 66.679688 7.921875 67.996094 6.859375 69.480469 6.144531 C 69.414062 5.652344 69.46875 5.144531 69.679688 4.628906 C 70.554688 2.488281 72.882812 2.769531 74.140625 2.902344 C 74.777344 2.984375 75.570312 3.089844 76.429688 3.042969 C 77.777344 2.980469 78.5 2.578125 79.597656 1.976562 C 80.648438 1.398438 81.953125 0.683594 83.890625 0.285156 C 87.710938 -0.511719 90.914062 0.570312 91.96875 0.929688 C 97.519531 2.777344 100.257812 7.09375 103.425781 12.09375 C 104.054688 13.097656 106.222656 16.746094 107.65625 21.75 C 108.6875 25.363281 108.542969 26.964844 108.230469 28.160156 C 107.601562 30.609375 106.109375 32.015625 102.320312 35.113281 C 98.367188 38.359375 96.382812 39.980469 94.675781 40.96875 C 90.710938 43.261719 88.21875 44.699219 84.910156 44.699219 Z M 84.910156 44.699219 "/>
<path style=" stroke:none;fill-rule:nonzero;fill:rgb(100%,100%,100%);fill-opacity:1;" d="M 483.554688 478.835938 L 626.707031 478.835938 C 650.960938 478.835938 670.621094 498.5 670.621094 522.757812 L 670.621094 637.621094 C 670.621094 661.878906 650.960938 681.542969 626.707031 681.542969 L 483.554688 681.542969 C 459.300781 681.542969 439.640625 661.878906 439.640625 637.621094 L 439.640625 522.757812 C 439.640625 498.5 459.300781 478.835938 483.554688 478.835938 Z M 483.554688 478.835938 "/>
<path style=" stroke:none;fill-rule:nonzero;fill:rgb(24.705882%,23.921569%,33.72549%);fill-opacity:1;" d="M 437.5625 636.582031 L 437.5625 521.71875 C 437.5625 496.925781 457.726562 476.757812 482.515625 476.757812 L 625.667969 476.757812 C 650.453125 476.757812 670.621094 496.925781 670.621094 521.71875 L 670.621094 636.582031 C 670.621094 661.375 650.453125 681.542969 625.667969 681.542969 L 482.515625 681.542969 C 457.726562 681.542969 437.5625 661.375 437.5625 636.582031 Z M 482.515625 478.835938 C 458.875 478.835938 439.640625 498.074219 439.640625 521.71875 L 439.640625 636.582031 C 439.640625 660.226562 458.875 679.464844 482.515625 679.464844 L 625.667969 679.464844 C 649.308594 679.464844 668.539062 660.226562 668.539062 636.582031 L 668.539062 521.71875 C 668.539062 498.074219 649.308594 478.835938 625.667969 478.835938 Z M 482.515625 478.835938 "/>
<path style=" stroke:none;fill-rule:nonzero;fill:rgb(91.764706%,26.27451%,20.784314%);fill-opacity:1;" d="M 573.351562 559.144531 L 576.886719 559.144531 L 586.953125 549.074219 L 587.449219 544.796875 C 568.710938 528.257812 540.113281 530.039062 523.578125 548.78125 C 518.984375 553.988281 515.648438 560.179688 513.832031 566.882812 C 514.953125 566.421875 516.195312 566.347656 517.363281 566.667969 L 537.496094 563.347656 C 537.496094 563.347656 538.523438 561.652344 539.050781 561.757812 C 548.007812 551.917969 563.082031 550.773438 573.421875 559.144531 Z M 573.351562 559.144531 "/>
<path style=" stroke:none;fill-rule:nonzero;fill:rgb(25.882353%,52.156863%,95.686275%);fill-opacity:1;" d="M 601.296875 566.882812 C 598.980469 558.359375 594.230469 550.695312 587.625 544.832031 L 573.496094 558.96875 C 579.460938 563.84375 582.859375 571.191406 582.714844 578.894531 L 582.714844 581.402344 C 589.660156 581.402344 595.289062 587.035156 595.289062 593.984375 C 595.289062 600.929688 589.660156 606.5625 582.714844 606.5625 L 557.5625 606.5625 L 555.054688 609.105469 L 555.054688 624.195312 L 557.5625 626.703125 L 582.714844 626.703125 C 600.78125 626.84375 615.539062 612.308594 615.679688 594.238281 C 615.765625 583.285156 610.367188 573.019531 601.296875 566.882812 Z M 601.296875 566.882812 "/>
<path style=" stroke:none;fill-rule:nonzero;fill:rgb(20.392157%,65.882353%,32.54902%);fill-opacity:1;" d="M 532.375 626.5625 L 557.527344 626.5625 L 557.527344 606.421875 L 532.375 606.421875 C 530.582031 606.421875 528.8125 606.035156 527.183594 605.289062 L 523.652344 606.386719 L 513.511719 616.457031 L 512.628906 619.988281 C 518.3125 624.285156 525.25 626.59375 532.375 626.5625 Z M 532.375 626.5625 "/>
<path style=" stroke:none;fill-rule:nonzero;fill:rgb(98.431373%,73.72549%,1.960784%);fill-opacity:1;" d="M 532.375 561.230469 C 514.308594 561.335938 499.753906 576.074219 499.859375 594.144531 C 499.921875 604.234375 504.632812 613.730469 512.628906 619.882812 L 527.21875 605.289062 C 520.890625 602.429688 518.074219 594.980469 520.9375 588.648438 C 523.796875 582.316406 531.246094 579.503906 537.574219 582.363281 C 540.363281 583.625 542.597656 585.859375 543.855469 588.648438 L 558.445312 574.054688 C 552.238281 565.9375 542.59375 561.191406 532.375 561.226562 Z M 532.375 561.230469 "/>
<path style=" stroke:none;fill-rule:nonzero;fill:rgb(100%,100%,100%);fill-opacity:1;" d="M 502.242188 184.164062 L 645.394531 184.164062 C 669.648438 184.164062 689.308594 203.828125 689.308594 228.085938 L 689.308594 342.949219 C 689.308594 367.207031 669.648438 386.871094 645.394531 386.871094 L 502.242188 386.871094 C 477.988281 386.871094 458.328125 367.207031 458.328125 342.949219 L 458.328125 228.085938 C 458.328125 203.828125 477.988281 184.164062 502.242188 184.164062 Z M 502.242188 184.164062 "/>
<path style=" stroke:none;fill-rule:nonzero;fill:rgb(24.705882%,23.921569%,33.72549%);fill-opacity:1;" d="M 456.25 341.90625 L 456.25 227.046875 C 456.25 202.253906 476.414062 182.082031 501.203125 182.082031 L 644.355469 182.082031 C 669.140625 182.082031 689.308594 202.253906 689.308594 227.046875 L 689.308594 341.90625 C 689.308594 366.699219 669.140625 386.871094 644.355469 386.871094 L 501.203125 386.871094 C 476.414062 386.871094 456.25 366.699219 456.25 341.90625 Z M 501.203125 184.164062 C 477.5625 184.164062 458.328125 203.402344 458.328125 227.046875 L 458.328125 341.90625 C 458.328125 365.554688 477.5625 384.789062 501.203125 384.789062 L 644.355469 384.789062 C 667.996094 384.789062 687.226562 365.554688 687.226562 341.90625 L 687.226562 227.046875 C 687.226562 203.402344 667.996094 184.164062 644.355469 184.164062 Z M 501.203125 184.164062 "/>
<use xlink:href="#surface5" mask="url(#mask0)"/>
<path style=" stroke:none;fill-rule:nonzero;fill:rgb(24.705882%,23.921569%,33.72549%);fill-opacity:1;" d="M 298.421875 690.085938 C 298.421875 690.773438 298.972656 691.324219 299.660156 691.324219 L 556.800781 691.324219 C 557.488281 691.324219 558.039062 690.773438 558.039062 690.085938 C 558.039062 689.753906 557.914062 689.464844 557.707031 689.246094 L 464.410156 689.246094 C 462.425781 689.246094 460.480469 689.109375 458.566406 688.847656 L 299.660156 688.847656 C 298.972656 688.847656 298.421875 689.402344 298.421875 690.085938 Z M 298.421875 690.085938 "/>
<path style=" stroke:none;fill-rule:nonzero;fill:rgb(100%,100%,100%);fill-opacity:1;" d="M 110.429688 474.40625 L 253.582031 474.40625 C 277.835938 474.40625 297.496094 494.074219 297.496094 518.332031 L 297.496094 633.191406 C 297.496094 657.449219 277.835938 677.117188 253.582031 677.117188 L 110.429688 677.117188 C 86.175781 677.117188 66.515625 657.449219 66.515625 633.191406 L 66.515625 518.332031 C 66.515625 494.074219 86.175781 474.40625 110.429688 474.40625 Z M 110.429688 474.40625 "/>
<path style=" stroke:none;fill-rule:nonzero;fill:rgb(24.705882%,23.921569%,33.72549%);fill-opacity:1;" d="M 65.476562 633.191406 L 65.476562 518.332031 C 65.476562 493.539062 85.640625 473.367188 110.429688 473.367188 L 253.582031 473.367188 C 278.371094 473.367188 298.535156 493.539062 298.535156 518.332031 L 298.535156 633.191406 C 298.535156 657.984375 278.371094 678.15625 253.582031 678.15625 L 110.429688 678.15625 C 85.640625 678.15625 65.476562 657.984375 65.476562 633.191406 Z M 110.429688 475.449219 C 86.789062 475.449219 67.554688 494.683594 67.554688 518.332031 L 67.554688 633.191406 C 67.554688 656.839844 86.789062 676.074219 110.429688 676.074219 L 253.582031 676.074219 C 277.222656 676.074219 296.457031 656.839844 296.457031 633.191406 L 296.457031 518.332031 C 296.457031 494.683594 277.222656 475.449219 253.582031 475.449219 Z M 110.429688 475.449219 "/>
<path style=" stroke:none;fill-rule:nonzero;fill:url(#linear0);" d="M 163.949219 524.699219 L 196.015625 524.699219 L 162.730469 623.347656 C 162.027344 625.425781 160.078125 626.824219 157.886719 626.824219 L 132.933594 626.824219 C 130.113281 626.824219 127.828125 624.539062 127.828125 621.71875 C 127.828125 621.164062 127.917969 620.613281 128.09375 620.085938 L 159.105469 528.175781 C 159.808594 526.097656 161.757812 524.699219 163.949219 524.699219 Z M 163.949219 524.699219 "/>
<path style=" stroke:none;fill-rule:nonzero;fill:rgb(0%,47.058824%,83.137255%);fill-opacity:1;" d="M 210.542969 590.863281 L 159.699219 590.863281 C 158.398438 590.863281 157.34375 591.917969 157.34375 593.214844 C 157.34375 593.871094 157.613281 594.496094 158.089844 594.941406 L 190.765625 625.445312 C 191.714844 626.332031 192.96875 626.824219 194.269531 626.824219 L 223.058594 626.824219 Z M 210.542969 590.863281 "/>
<path style=" stroke:none;fill-rule:nonzero;fill:url(#linear1);" d="M 163.949219 524.699219 C 161.730469 524.691406 159.761719 526.128906 159.09375 528.246094 L 128.132812 620.003906 C 127.183594 622.652344 128.558594 625.574219 131.210938 626.523438 C 131.765625 626.726562 132.355469 626.828125 132.945312 626.824219 L 158.542969 626.824219 C 160.484375 626.476562 162.089844 625.113281 162.742188 623.253906 L 168.917969 605.050781 L 190.972656 625.628906 C 191.894531 626.390625 193.054688 626.816406 194.253906 626.824219 L 222.9375 626.824219 L 210.359375 590.863281 L 173.683594 590.875 L 196.128906 524.699219 Z M 163.949219 524.699219 "/>
<path style=" stroke:none;fill-rule:nonzero;fill:url(#linear2);" d="M 204.90625 528.171875 C 204.203125 526.097656 202.257812 524.699219 200.066406 524.699219 L 164.332031 524.699219 C 166.523438 524.699219 168.46875 526.097656 169.167969 528.171875 L 200.183594 620.085938 C 201.082031 622.757812 199.648438 625.65625 196.976562 626.558594 C 196.453125 626.734375 195.898438 626.824219 195.34375 626.824219 L 231.082031 626.824219 C 233.902344 626.824219 236.1875 624.539062 236.183594 621.71875 C 236.183594 621.164062 236.09375 620.613281 235.917969 620.085938 Z M 204.90625 528.171875 "/>
<path style=" stroke:none;fill-rule:nonzero;fill:rgb(100%,100%,100%);fill-opacity:1;" d="M 45.246094 215.242188 L 188.398438 215.242188 C 212.652344 215.242188 232.3125 234.910156 232.3125 259.167969 L 232.3125 374.027344 C 232.3125 398.289062 212.652344 417.953125 188.398438 417.953125 L 45.246094 417.953125 C 20.992188 417.953125 1.332031 398.289062 1.332031 374.027344 L 1.332031 259.167969 C 1.332031 234.910156 20.992188 215.242188 45.246094 215.242188 Z M 45.246094 215.242188 "/>
<path style=" stroke:none;fill-rule:nonzero;fill:rgb(24.705882%,23.921569%,33.72549%);fill-opacity:1;" d="M 0.292969 374.027344 L 0.292969 259.167969 C 0.292969 234.375 20.457031 214.203125 45.246094 214.203125 L 188.398438 214.203125 C 213.1875 214.203125 233.351562 234.375 233.351562 259.167969 L 233.351562 374.027344 C 233.351562 398.820312 213.1875 418.992188 188.398438 418.992188 L 45.246094 418.992188 C 20.457031 418.992188 0.292969 398.820312 0.292969 374.027344 Z M 45.246094 216.285156 C 21.605469 216.285156 2.371094 235.519531 2.371094 259.167969 L 2.371094 374.027344 C 2.371094 397.675781 21.605469 416.910156 45.246094 416.910156 L 188.398438 416.910156 C 212.039062 416.910156 231.273438 397.675781 231.273438 374.027344 L 231.273438 259.167969 C 231.273438 235.519531 212.039062 216.285156 188.398438 216.285156 Z M 45.246094 216.285156 "/>
<path style=" stroke:none;fill-rule:nonzero;fill:rgb(14.509804%,18.431373%,24.313725%);fill-opacity:1;" d="M 88.230469 318.355469 C 88.230469 319.96875 88.40625 321.277344 88.710938 322.234375 C 89.058594 323.195312 89.496094 324.242188 90.105469 325.375 C 90.324219 325.722656 90.410156 326.070312 90.410156 326.375 C 90.410156 326.8125 90.148438 327.25 89.582031 327.683594 L 86.835938 329.515625 C 86.445312 329.777344 86.050781 329.90625 85.703125 329.90625 C 85.269531 329.90625 84.832031 329.691406 84.394531 329.296875 C 83.785156 328.644531 83.261719 327.945312 82.828125 327.25 C 82.390625 326.507812 81.957031 325.679688 81.476562 324.675781 C 78.078125 328.6875 73.804688 330.691406 68.664062 330.691406 C 65.003906 330.691406 62.082031 329.644531 59.945312 327.554688 C 57.8125 325.460938 56.722656 322.671875 56.722656 319.183594 C 56.722656 315.476562 58.027344 312.46875 60.6875 310.203125 C 63.347656 307.9375 66.875 306.804688 71.363281 306.804688 C 72.847656 306.804688 74.371094 306.933594 75.984375 307.152344 C 77.597656 307.371094 79.253906 307.71875 80.996094 308.109375 L 80.996094 304.929688 C 80.996094 301.617188 80.300781 299.304688 78.949219 297.953125 C 77.554688 296.601562 75.199219 295.949219 71.84375 295.949219 C 70.320312 295.949219 68.75 296.125 67.136719 296.515625 C 65.523438 296.90625 63.957031 297.386719 62.429688 297.996094 C 61.734375 298.304688 61.210938 298.476562 60.90625 298.5625 C 60.601562 298.652344 60.382812 298.695312 60.207031 298.695312 C 59.597656 298.695312 59.292969 298.257812 59.292969 297.34375 L 59.292969 295.207031 C 59.292969 294.511719 59.378906 293.988281 59.597656 293.683594 C 59.816406 293.375 60.207031 293.070312 60.816406 292.765625 C 62.34375 291.980469 64.175781 291.328125 66.308594 290.804688 C 68.445312 290.238281 70.710938 289.976562 73.109375 289.976562 C 78.292969 289.976562 82.085938 291.152344 84.527344 293.507812 C 86.921875 295.863281 88.144531 299.4375 88.144531 304.230469 L 88.144531 318.355469 Z M 70.535156 324.980469 C 71.976562 324.980469 73.457031 324.71875 75.027344 324.195312 C 76.59375 323.671875 77.988281 322.714844 79.167969 321.40625 C 79.863281 320.578125 80.386719 319.664062 80.648438 318.617188 C 80.910156 317.570312 81.082031 316.304688 81.082031 314.824219 L 81.082031 312.992188 C 79.820312 312.6875 78.46875 312.425781 77.074219 312.253906 C 75.679688 312.078125 74.328125 311.992188 72.976562 311.992188 C 70.058594 311.992188 67.921875 312.558594 66.484375 313.734375 C 65.046875 314.910156 64.347656 316.566406 64.347656 318.746094 C 64.347656 320.796875 64.871094 322.324219 65.960938 323.367188 C 67.007812 324.457031 68.53125 324.980469 70.535156 324.980469 Z M 105.53125 329.691406 C 104.75 329.691406 104.226562 329.558594 103.875 329.253906 C 103.527344 328.992188 103.222656 328.382812 102.960938 327.554688 L 92.71875 293.855469 C 92.457031 292.984375 92.328125 292.417969 92.328125 292.113281 C 92.328125 291.414062 92.675781 291.023438 93.375 291.023438 L 97.644531 291.023438 C 98.472656 291.023438 99.039062 291.152344 99.34375 291.457031 C 99.691406 291.71875 99.953125 292.332031 100.214844 293.160156 L 107.539062 322.015625 L 114.335938 293.160156 C 114.554688 292.289062 114.816406 291.71875 115.164062 291.457031 C 115.511719 291.199219 116.125 291.023438 116.90625 291.023438 L 120.394531 291.023438 C 121.222656 291.023438 121.789062 291.152344 122.136719 291.457031 C 122.484375 291.71875 122.792969 292.332031 122.964844 293.160156 L 129.851562 322.367188 L 137.390625 293.160156 C 137.652344 292.289062 137.957031 291.71875 138.261719 291.457031 C 138.613281 291.199219 139.179688 291.023438 139.960938 291.023438 L 144.015625 291.023438 C 144.710938 291.023438 145.105469 291.371094 145.105469 292.113281 C 145.105469 292.332031 145.0625 292.546875 145.019531 292.808594 C 144.972656 293.070312 144.886719 293.421875 144.710938 293.898438 L 134.210938 327.597656 C 133.949219 328.46875 133.644531 329.035156 133.292969 329.296875 C 132.945312 329.558594 132.378906 329.734375 131.636719 329.734375 L 127.890625 329.734375 C 127.0625 329.734375 126.496094 329.601562 126.148438 329.296875 C 125.796875 328.992188 125.492188 328.425781 125.320312 327.554688 L 118.5625 299.4375 L 111.851562 327.511719 C 111.632812 328.382812 111.371094 328.949219 111.023438 329.253906 C 110.675781 329.558594 110.066406 329.691406 109.28125 329.691406 Z M 161.535156 330.867188 C 159.269531 330.867188 157.003906 330.605469 154.824219 330.082031 C 152.644531 329.558594 150.945312 328.992188 149.8125 328.339844 C 149.113281 327.945312 148.636719 327.511719 148.460938 327.117188 C 148.285156 326.726562 148.199219 326.289062 148.199219 325.898438 L 148.199219 323.671875 C 148.199219 322.757812 148.546875 322.324219 149.203125 322.324219 C 149.464844 322.324219 149.726562 322.367188 149.984375 322.453125 C 150.246094 322.539062 150.640625 322.714844 151.074219 322.890625 C 152.558594 323.542969 154.171875 324.066406 155.871094 324.414062 C 157.613281 324.761719 159.3125 324.9375 161.054688 324.9375 C 163.800781 324.9375 165.9375 324.457031 167.417969 323.5 C 168.902344 322.539062 169.683594 321.144531 169.683594 319.359375 C 169.683594 318.136719 169.292969 317.136719 168.507812 316.304688 C 167.722656 315.476562 166.242188 314.738281 164.105469 314.039062 L 157.789062 312.078125 C 154.605469 311.074219 152.253906 309.59375 150.8125 307.632812 C 149.375 305.714844 148.636719 303.578125 148.636719 301.3125 C 148.636719 299.480469 149.027344 297.867188 149.8125 296.472656 C 150.597656 295.078125 151.640625 293.855469 152.949219 292.898438 C 154.257812 291.894531 155.738281 291.152344 157.480469 290.628906 C 159.226562 290.109375 161.054688 289.890625 162.972656 289.890625 C 163.933594 289.890625 164.933594 289.933594 165.894531 290.0625 C 166.894531 290.195312 167.8125 290.367188 168.726562 290.542969 C 169.597656 290.761719 170.425781 290.980469 171.210938 291.242188 C 171.996094 291.503906 172.605469 291.765625 173.039062 292.027344 C 173.652344 292.375 174.085938 292.722656 174.347656 293.117188 C 174.609375 293.464844 174.742188 293.945312 174.742188 294.554688 L 174.742188 296.601562 C 174.742188 297.519531 174.390625 297.996094 173.738281 297.996094 C 173.390625 297.996094 172.824219 297.824219 172.082031 297.476562 C 169.597656 296.339844 166.808594 295.773438 163.714844 295.773438 C 161.230469 295.773438 159.269531 296.167969 157.917969 296.996094 C 156.566406 297.824219 155.871094 299.085938 155.871094 300.875 C 155.871094 302.09375 156.304688 303.140625 157.175781 303.96875 C 158.050781 304.796875 159.660156 305.625 161.972656 306.367188 L 168.160156 308.328125 C 171.296875 309.332031 173.5625 310.726562 174.914062 312.515625 C 176.265625 314.300781 176.917969 316.351562 176.917969 318.617188 C 176.917969 320.492188 176.527344 322.191406 175.785156 323.671875 C 175.003906 325.15625 173.957031 326.464844 172.605469 327.511719 C 171.253906 328.601562 169.640625 329.382812 167.765625 329.949219 C 165.804688 330.5625 163.757812 330.867188 161.535156 330.867188 Z M 161.535156 330.867188 "/>
<path style=" stroke:none;fill-rule:evenodd;fill:rgb(100%,60%,0%);fill-opacity:1;" d="M 169.773438 352.050781 C 155.433594 362.644531 134.601562 368.269531 116.691406 368.269531 C 91.585938 368.269531 68.96875 358.984375 51.882812 343.550781 C 50.53125 342.332031 51.753906 340.675781 53.367188 341.632812 C 71.84375 352.359375 94.636719 358.851562 118.214844 358.851562 C 134.121094 358.851562 151.597656 355.539062 167.679688 348.738281 C 170.078125 347.648438 172.125 350.308594 169.773438 352.050781 Z M 169.773438 352.050781 "/>
<path style=" stroke:none;fill-rule:evenodd;fill:rgb(100%,60%,0%);fill-opacity:1;" d="M 175.742188 345.253906 C 173.914062 342.898438 163.628906 344.117188 158.964844 344.683594 C 157.570312 344.859375 157.351562 343.640625 158.617188 342.722656 C 166.808594 336.96875 180.277344 338.625 181.84375 340.542969 C 183.414062 342.503906 181.410156 355.976562 173.738281 362.425781 C 172.5625 363.429688 171.429688 362.90625 171.953125 361.597656 C 173.695312 357.285156 177.574219 347.5625 175.742188 345.253906 Z M 175.742188 345.253906 "/>
<path style=" stroke:none;fill-rule:nonzero;fill:rgb(100%,71.372549%,71.372549%);fill-opacity:1;" d="M 390.832031 296.136719 C 389.789062 295.097656 381.472656 273.253906 381.472656 273.253906 L 361.714844 272.214844 L 352.675781 293.535156 Z M 390.832031 296.136719 "/>
<path style=" stroke:none;fill-rule:nonzero;fill:rgb(100%,71.372549%,71.372549%);fill-opacity:1;" d="M 398.1875 254.578125 C 398.1875 269.269531 386.28125 281.179688 371.59375 281.179688 C 356.90625 281.179688 345 269.269531 345 254.578125 C 345 239.886719 356.90625 227.976562 371.59375 227.976562 C 386.28125 227.976562 398.1875 239.886719 398.1875 254.578125 Z M 398.1875 254.578125 "/>
<path style=" stroke:none;fill-rule:nonzero;fill:rgb(18.431373%,18.039216%,25.490196%);fill-opacity:1;" d="M 379.59375 650.175781 L 370.492188 513.921875 L 360.09375 560.726562 L 413.128906 628.332031 L 399.609375 643.933594 L 323.179688 569.566406 L 324.742188 454.636719 L 330.980469 436.953125 L 412.085938 437.992188 L 421.445312 469.195312 L 396.488281 650.175781 Z M 379.59375 650.175781 "/>
<path style=" stroke:none;fill-rule:nonzero;fill:rgb(18.431373%,18.039216%,25.490196%);fill-opacity:1;" d="M 396.089844 272.03125 L 394.011719 272.132812 C 394.011719 272.132812 392.15625 255.5625 391.066406 254.574219 C 389.976562 253.589844 388 255.769531 388 255.769531 C 388 255.769531 379.4375 250.984375 379.179688 245.789062 C 378.925781 240.59375 378.71875 236.441406 375.605469 236.59375 C 372.488281 236.746094 355.035156 241.773438 350.882812 241.976562 C 346.726562 242.183594 340.136719 235.21875 347.101562 228.625 C 354.066406 222.035156 360.195312 219.648438 361.179688 218.558594 C 362.167969 217.46875 368.667969 212.984375 374.347656 216.871094 C 380.027344 220.753906 387.300781 220.398438 387.300781 220.398438 C 387.300781 220.398438 400.953125 222.847656 399.183594 229.183594 C 397.414062 235.519531 404.257812 247.679688 401.449219 254.0625 C 398.640625 260.449219 396.089844 272.03125 396.089844 272.03125 Z M 396.089844 272.03125 "/>
<path style=" stroke:none;fill-rule:nonzero;fill:rgb(18.431373%,18.039216%,25.490196%);fill-opacity:1;" d="M 379.910156 644.855469 L 398.628906 646.933594 L 400.707031 681.257812 C 400.707031 681.257812 399.667969 697.898438 381.992188 695.820312 C 364.3125 693.738281 369.511719 677.097656 369.511719 677.097656 Z M 379.910156 644.855469 "/>
<path style=" stroke:none;fill-rule:nonzero;fill:rgb(18.431373%,18.039216%,25.490196%);fill-opacity:1;" d="M 403.25 617.113281 C 403.25 617.113281 416.765625 610.875 418.847656 618.152344 L 423.007812 632.714844 C 423.007812 632.714844 423.007812 647.277344 424.046875 648.316406 C 425.085938 649.355469 444.84375 676.398438 427.164062 690.960938 C 427.164062 690.960938 417.808594 692 412.609375 677.441406 C 407.410156 662.878906 391.8125 648.316406 391.8125 648.316406 C 391.8125 648.316406 388.789062 641.035156 393.941406 641.554688 C 399.089844 642.078125 406.367188 629.59375 404.289062 625.433594 C 402.210938 621.273438 403.25 617.113281 403.25 617.113281 Z M 403.25 617.113281 "/>
<path style=" stroke:none;fill-rule:nonzero;fill:rgb(100%,71.372549%,71.372549%);fill-opacity:1;" d="M 232.667969 491.125 C 227.832031 489.085938 226.503906 481.269531 229.707031 473.664062 C 230.945312 470.609375 232.898438 467.894531 235.398438 465.746094 L 239.136719 457.171875 L 239.003906 457.082031 L 249.746094 414.246094 C 252.246094 404.289062 259.125 395.886719 268.570312 391.867188 C 274.191406 389.476562 279.523438 389.042969 281.074219 394.773438 C 283.648438 404.277344 266.886719 434.890625 256.785156 452.117188 L 248.910156 471.4375 C 249.125 474.730469 248.546875 478.023438 247.222656 481.046875 C 244.023438 488.652344 237.507812 493.164062 232.667969 491.125 Z M 232.667969 491.125 "/>
<path style=" stroke:none;fill-rule:nonzero;fill:rgb(7.058824%,68.627451%,98.039216%);fill-opacity:1;" d="M 352.296875 286.597656 L 386.613281 287.640625 L 419.886719 302.199219 L 414.6875 388.527344 C 414.6875 388.527344 420.925781 408.289062 417.808594 411.410156 C 414.6875 414.53125 417.808594 428.519531 415.726562 428.804688 C 413.648438 429.09375 415.726562 444.136719 415.726562 444.136719 C 415.726562 444.136719 386.613281 434.292969 361.65625 440.535156 C 336.699219 446.773438 328.378906 436.375 328.378906 436.375 C 328.378906 436.375 322.140625 411.410156 322.140625 406.210938 L 322.140625 299.867188 Z M 352.296875 286.597656 "/>
<path style=" stroke:none;fill-rule:nonzero;fill:rgb(7.058824%,68.627451%,98.039216%);fill-opacity:1;" d="M 331.160156 300.699219 C 331.160156 300.699219 316.601562 296.539062 309.320312 306.941406 C 302.042969 317.339844 297.882812 317.339844 297.882812 330.863281 C 297.882812 330.863281 255.25 391.1875 257.328125 397.429688 L 247.449219 413.550781 L 272.40625 427.070312 C 272.40625 427.070312 281.246094 418.230469 281.246094 409.910156 C 281.246094 401.589844 306.203125 378.707031 306.203125 378.707031 C 306.203125 378.707031 328.039062 350.625 329.078125 340.222656 C 330.117188 329.824219 331.160156 300.699219 331.160156 300.699219 Z M 331.160156 300.699219 "/>
<path style=" stroke:none;fill-rule:nonzero;fill:rgb(100%,71.372549%,71.372549%);fill-opacity:1;" d="M 446.265625 511.363281 C 451.507812 511.085938 455.40625 504.183594 454.976562 495.941406 C 454.847656 492.648438 453.933594 489.433594 452.308594 486.5625 L 451.703125 477.230469 L 451.859375 477.191406 L 456.285156 433.25 C 457.316406 423.035156 453.695312 412.796875 446.171875 405.808594 C 441.699219 401.652344 436.828125 399.433594 433.425781 404.296875 C 427.78125 412.363281 433.15625 446.851562 436.816406 466.484375 L 437.667969 487.332031 C 436.351562 490.355469 435.777344 493.648438 435.992188 496.941406 C 436.425781 505.179688 441.023438 511.636719 446.265625 511.363281 Z M 446.265625 511.363281 "/>
<path style=" stroke:none;fill-rule:nonzero;fill:rgb(7.058824%,68.627451%,93.72549%);fill-opacity:1;" d="M 418.808594 303.6875 C 418.808594 303.6875 433.914062 304.714844 437.234375 316.972656 C 440.550781 329.226562 444.464844 330.636719 439.875 343.355469 C 439.875 343.355469 459.507812 414.574219 455.4375 419.738281 L 459.257812 438.257812 L 431.195312 442.503906 C 431.195312 442.503906 425.878906 431.1875 428.703125 423.359375 C 431.527344 415.535156 415.816406 385.539062 415.816406 385.539062 C 415.816406 385.539062 404.804688 351.707031 407.355469 341.570312 C 409.90625 331.433594 418.808594 303.6875 418.808594 303.6875 Z M 418.808594 303.6875 "/>
</g>
</svg>
