<?xml version="1.0" encoding="UTF-8"?>
<svg xmlns="http://www.w3.org/2000/svg" xmlns:xlink="http://www.w3.org/1999/xlink" width="400px" height="398px" viewBox="0 0 400 398" version="1.1">
<defs>
<filter id="alpha" filterUnits="objectBoundingBox" x="0%" y="0%" width="100%" height="100%">
  <feColorMatrix type="matrix" in="SourceGraphic" values="0 0 0 0 1 0 0 0 0 1 0 0 0 0 1 0 0 0 1 0"/>
</filter>
<mask id="mask0">
  <g filter="url(#alpha)">
<rect x="0" y="0" width="400" height="398" style="fill:rgb(0%,0%,0%);fill-opacity:0.980392;stroke:none;"/>
  </g>
</mask>
<clipPath id="clip1">
  <rect x="0" y="0" width="400" height="398"/>
</clipPath>
<g id="surface5" clip-path="url(#clip1)">
<path style=" stroke:none;fill-rule:nonzero;fill:rgb(92.941176%,9.803922%,26.666667%);fill-opacity:1;" d="M 355.125 130.902344 L 302.558594 130.902344 C 299.246094 130.914062 296.566406 133.808594 296.558594 137.382812 L 296.558594 152.664062 L 311.140625 152.664062 L 311.140625 150.167969 C 311.140625 148.230469 312.59375 146.660156 314.386719 146.660156 L 343.308594 146.660156 C 345.097656 146.660156 346.550781 148.230469 346.550781 150.167969 L 346.550781 152.664062 L 361.144531 152.664062 L 361.144531 137.382812 C 361.132812 133.800781 358.441406 130.902344 355.125 130.902344 Z M 355.125 130.902344 "/>
<path style=" stroke:none;fill-rule:nonzero;fill:rgb(92.941176%,9.803922%,26.666667%);fill-opacity:1;" d="M 346.542969 179.925781 C 346.539062 181.863281 345.085938 183.433594 343.296875 183.433594 L 314.375 183.433594 C 312.582031 183.433594 311.132812 181.863281 311.128906 179.925781 L 311.128906 177.433594 L 296.546875 177.433594 L 296.546875 192.707031 C 296.554688 196.285156 299.234375 199.183594 302.546875 199.191406 L 355.113281 199.191406 C 358.4375 199.199219 361.132812 196.296875 361.144531 192.707031 L 361.144531 177.433594 L 346.542969 177.433594 Z M 346.542969 179.925781 "/>
<path style=" stroke:none;fill-rule:nonzero;fill:rgb(92.941176%,9.803922%,26.666667%);fill-opacity:1;" d="M 296.546875 157.167969 L 311.132812 157.167969 L 311.132812 172.925781 L 296.546875 172.925781 Z M 296.546875 157.167969 "/>
<path style=" stroke:none;fill-rule:nonzero;fill:rgb(92.941176%,9.803922%,26.666667%);fill-opacity:1;" d="M 346.542969 157.167969 L 361.125 157.167969 L 361.125 172.925781 L 346.542969 172.925781 Z M 346.542969 157.167969 "/>
</g>
<linearGradient id="linear0" gradientUnits="userSpaceOnUse" x1="-1211.5643" y1="1173.4175" x2="-1232.0594" y2="1233.965" gradientTransform="matrix(0.928431,0,0,0.929331,1225.217515,-786.12266)">
<stop offset="0" style="stop-color:rgb(6.666667%,29.019608%,54.509804%);stop-opacity:1;"/>
<stop offset="1" style="stop-color:rgb(2.352941%,41.176471%,73.72549%);stop-opacity:1;"/>
</linearGradient>
<linearGradient id="linear1" gradientUnits="userSpaceOnUse" x1="-1205.1624" y1="1201.6334" x2="-1209.9031" y2="1203.2365" gradientTransform="matrix(0.928431,0,0,0.929331,1225.217515,-786.12266)">
<stop offset="0" style="stop-color:rgb(0%,0%,0%);stop-opacity:0.301961;"/>
<stop offset="0.071" style="stop-color:rgb(0%,0%,0%);stop-opacity:0.2;"/>
<stop offset="0.321" style="stop-color:rgb(0%,0%,0%);stop-opacity:0.101961;"/>
<stop offset="0.623" style="stop-color:rgb(0%,0%,0%);stop-opacity:0.0509804;"/>
<stop offset="1" style="stop-color:rgb(0%,0%,0%);stop-opacity:0;"/>
</linearGradient>
<linearGradient id="linear2" gradientUnits="userSpaceOnUse" x1="-1207.6221" y1="1171.5963" x2="-1185.1245" y2="1231.5337" gradientTransform="matrix(0.928431,0,0,0.929331,1225.217515,-786.12266)">
<stop offset="0" style="stop-color:rgb(23.529412%,79.607843%,95.686275%);stop-opacity:1;"/>
<stop offset="1" style="stop-color:rgb(15.686275%,57.254902%,87.45098%);stop-opacity:1;"/>
</linearGradient>
</defs>
<g id="surface1">
<path style=" stroke:none;fill-rule:nonzero;fill:rgb(94.901961%,94.901961%,94.901961%);fill-opacity:1;" d="M 145.328125 52.894531 C 144.339844 51.226562 140.066406 53.011719 139.28125 51.5 C 138.496094 49.992188 142.46875 47.691406 144.738281 42.441406 C 145.148438 41.496094 147.726562 35.53125 145.816406 33.6875 C 142.199219 30.199219 125.640625 44.601562 119.84375 39.886719 C 118.570312 38.855469 117.683594 36.789062 113.835938 33.4375 C 112.304688 32.101562 111.375 31.5 110.480469 31.726562 C 109.210938 32.042969 109.109375 33.746094 107.746094 37.097656 C 105.699219 42.121094 104.492188 41.816406 103.300781 45.824219 C 102.414062 48.796875 102.617188 50.527344 101.574219 50.863281 C 100.101562 51.34375 98.746094 48.1875 96.882812 48.46875 C 94.976562 48.757812 93.824219 52.429688 93.460938 55.183594 C 92.777344 60.34375 94.671875 63.75 95.722656 67.332031 C 96.863281 71.226562 97.539062 77.144531 94.90625 85.527344 L 68.832031 159.0625 C 74.585938 143.972656 91.253906 102.609375 98.257812 87.238281 C 100.28125 82.800781 102.515625 78.296875 107.097656 76.523438 C 111.511719 74.8125 117.570312 75.832031 125.300781 73.96875 C 126.203125 73.753906 128.707031 73.113281 129.019531 71.640625 C 129.28125 70.421875 127.808594 69.742188 128.035156 68.597656 C 128.339844 67.066406 131.234375 67.046875 134.792969 65.28125 C 137.304688 64.035156 138.867188 62.554688 140.214844 61.28125 C 140.617188 60.898438 146.644531 55.117188 145.328125 52.894531 Z M 145.328125 52.894531 "/>
<path style=" stroke:none;fill-rule:nonzero;fill:rgb(94.901961%,94.901961%,94.901961%);fill-opacity:1;" d="M 42.742188 91.609375 C 41.640625 91.613281 41.28125 94.230469 40.3125 94.179688 C 39.347656 94.128906 39.367188 91.511719 37.445312 88.882812 C 37.101562 88.410156 34.917969 85.421875 33.464844 85.828125 C 30.710938 86.597656 32.992188 98.890625 29.011719 100.375 C 28.136719 100.703125 26.867188 100.542969 24.113281 101.46875 C 23.019531 101.835938 22.457031 102.117188 22.308594 102.621094 C 22.09375 103.339844 22.902344 103.878906 24.152344 105.515625 C 26.023438 107.96875 25.527344 108.476562 27.148438 110.21875 C 28.351562 111.511719 29.257812 111.910156 29.121094 112.519531 C 28.929688 113.378906 26.992188 113.136719 26.59375 114.132812 C 26.183594 115.152344 27.652344 116.777344 28.898438 117.75 C 31.230469 119.574219 33.449219 119.628906 35.507812 120.144531 C 37.746094 120.707031 40.84375 122.085938 44.191406 125.796875 L 72.726562 159.824219 C 66.988281 152.644531 51.515625 132.519531 46 124.644531 C 44.40625 122.367188 42.84375 119.972656 43.296875 117.207031 C 43.730469 114.546875 45.980469 111.863281 47.296875 107.53125 C 47.449219 107.023438 47.859375 105.609375 47.226562 105.03125 C 46.703125 104.550781 45.945312 105.078125 45.453125 104.636719 C 44.789062 104.046875 45.613281 102.617188 45.777344 100.359375 C 45.890625 98.765625 45.613281 97.570312 45.378906 96.542969 C 45.304688 96.230469 44.210938 91.601562 42.742188 91.609375 Z M 42.742188 91.609375 "/>
<path style=" stroke:none;fill-rule:nonzero;fill:rgb(94.901961%,94.901961%,94.901961%);fill-opacity:1;" d="M 64.746094 96.554688 L 64.082031 90.617188 L 64.386719 90.164062 C 65.789062 88.082031 66.507812 86.050781 66.515625 84.121094 C 66.515625 83.816406 66.503906 83.507812 66.488281 83.195312 C 66.429688 81.957031 66.359375 80.417969 67.160156 78.621094 C 67.609375 77.621094 68.875 75.304688 70.773438 75.589844 C 71.285156 75.664062 71.671875 75.898438 71.964844 76.171875 C 72.007812 76.105469 72.050781 76.035156 72.101562 75.960938 C 72.691406 75.058594 73.160156 74.671875 73.609375 74.296875 C 73.957031 74.011719 74.316406 73.714844 74.875 73.015625 C 75.125 72.710938 75.316406 72.441406 75.476562 72.214844 C 75.96875 71.527344 76.609375 70.710938 77.742188 70.726562 C 78.949219 70.78125 79.582031 71.785156 80.003906 72.445312 C 80.75 73.628906 81.089844 74.480469 81.316406 75.042969 C 81.398438 75.25 81.492188 75.480469 81.539062 75.554688 C 81.925781 76.128906 85.09375 75.589844 86.289062 75.394531 C 88.96875 74.949219 91.285156 74.5625 92.242188 76.253906 C 92.925781 77.464844 92.417969 79.0625 90.683594 81.136719 C 90.144531 81.78125 89.570312 82.273438 89.058594 82.65625 C 89.484375 82.910156 89.859375 83.296875 90.015625 83.902344 C 90.375 85.34375 89.140625 86.785156 86.34375 88.195312 C 85.648438 88.546875 84.710938 89.019531 83.402344 89.246094 C 82.785156 89.351562 82.226562 89.378906 81.753906 89.390625 C 81.742188 89.667969 81.679688 89.964844 81.511719 90.273438 C 81.019531 91.175781 79.996094 91.605469 78.457031 91.5 C 76.761719 91.414062 75.363281 91.089844 74.132812 90.804688 C 73.054688 90.558594 72.128906 90.347656 71.402344 90.398438 C 70.054688 90.507812 69.011719 91.585938 67.792969 92.988281 Z M 64.746094 96.554688 "/>
<path style=" stroke:none;fill-rule:nonzero;fill:rgb(94.901961%,94.901961%,94.901961%);fill-opacity:1;" d="M 67.828125 61.199219 L 62.261719 63.347656 L 61.746094 63.167969 C 59.378906 62.335938 57.234375 62.160156 55.367188 62.640625 C 55.070312 62.714844 54.777344 62.808594 54.480469 62.902344 C 53.296875 63.269531 51.828125 63.730469 49.890625 63.410156 C 48.808594 63.226562 46.25 62.59375 46.042969 60.679688 C 45.984375 60.167969 46.113281 59.734375 46.304688 59.378906 C 46.226562 59.355469 46.148438 59.328125 46.066406 59.300781 C 45.042969 58.957031 44.550781 58.605469 44.074219 58.261719 C 43.710938 58 43.332031 57.726562 42.515625 57.359375 C 42.15625 57.199219 41.847656 57.082031 41.585938 56.984375 C 40.800781 56.679688 39.847656 56.265625 39.574219 55.167969 C 39.324219 53.984375 40.128906 53.117188 40.664062 52.542969 C 41.613281 51.515625 42.351562 50.972656 42.839844 50.613281 C 43.019531 50.480469 43.21875 50.332031 43.277344 50.265625 C 43.734375 49.746094 42.410156 46.816406 41.921875 45.707031 C 40.808594 43.226562 39.847656 41.082031 41.238281 39.726562 C 42.234375 38.757812 43.910156 38.84375 46.351562 39.996094 C 47.113281 40.355469 47.730469 40.785156 48.234375 41.183594 C 48.371094 40.710938 48.648438 40.246094 49.195312 39.941406 C 50.496094 39.226562 52.203125 40.058594 54.277344 42.410156 C 54.792969 42.992188 55.484375 43.777344 56.035156 44.992188 C 56.292969 45.5625 56.460938 46.09375 56.59375 46.550781 C 56.863281 46.488281 57.167969 46.476562 57.507812 46.5625 C 58.503906 46.808594 59.179688 47.6875 59.46875 49.207031 C 59.816406 50.871094 59.855469 52.304688 59.894531 53.570312 C 59.929688 54.671875 59.960938 55.625 60.191406 56.316406 C 60.640625 57.59375 61.949219 58.328125 63.613281 59.152344 Z M 67.828125 61.199219 "/>
<path style=" stroke:none;fill-rule:nonzero;fill:rgb(94.901961%,94.901961%,94.901961%);fill-opacity:1;" d="M 64.746094 43.707031 L 64.082031 37.765625 L 64.386719 37.316406 C 65.789062 35.234375 66.507812 33.203125 66.515625 31.273438 C 66.515625 30.964844 66.503906 30.660156 66.488281 30.347656 C 66.429688 29.109375 66.359375 27.570312 67.160156 25.773438 C 67.609375 24.773438 68.875 22.457031 70.773438 22.742188 C 71.285156 22.816406 71.671875 23.050781 71.964844 23.324219 C 72.007812 23.257812 72.050781 23.1875 72.101562 23.113281 C 72.691406 22.210938 73.160156 21.824219 73.609375 21.449219 C 73.957031 21.164062 74.316406 20.867188 74.875 20.167969 C 75.125 19.863281 75.316406 19.59375 75.476562 19.367188 C 75.96875 18.679688 76.609375 17.863281 77.742188 17.878906 C 78.949219 17.933594 79.582031 18.933594 80.003906 19.597656 C 80.75 20.777344 81.089844 21.628906 81.316406 22.195312 C 81.398438 22.402344 81.492188 22.632812 81.539062 22.707031 C 81.925781 23.277344 85.09375 22.742188 86.289062 22.546875 C 88.96875 22.101562 91.285156 21.714844 92.242188 23.40625 C 92.925781 24.617188 92.417969 26.214844 90.683594 28.289062 C 90.144531 28.933594 89.570312 29.421875 89.058594 29.808594 C 89.484375 30.058594 89.859375 30.445312 90.015625 31.054688 C 90.375 32.496094 89.140625 33.9375 86.34375 35.347656 C 85.648438 35.699219 84.710938 36.171875 83.402344 36.398438 C 82.785156 36.503906 82.226562 36.527344 81.753906 36.542969 C 81.742188 36.816406 81.679688 37.117188 81.511719 37.421875 C 81.019531 38.328125 79.996094 38.757812 78.457031 38.652344 C 76.761719 38.5625 75.363281 38.242188 74.132812 37.957031 C 73.054688 37.710938 72.128906 37.5 71.402344 37.550781 C 70.054688 37.660156 69.011719 38.738281 67.792969 40.140625 Z M 64.746094 43.707031 "/>
<path style=" stroke:none;fill-rule:nonzero;fill:rgb(94.901961%,94.901961%,94.901961%);fill-opacity:1;" d="M 70.816406 158.96875 L 69.574219 158.1875 L 69.273438 156.75 L 69.574219 158.1875 L 68.125 158.351562 C 68.101562 158.21875 68.023438 157.910156 67.902344 157.425781 C 67.253906 154.769531 65.277344 146.691406 63.625 133.964844 C 62.476562 125.082031 61.824219 115.949219 61.6875 106.816406 C 61.554688 97.671875 61.988281 90.746094 62.332031 85.183594 C 62.59375 80.984375 62.914062 76.988281 63.226562 73.09375 C 64.054688 62.691406 64.839844 52.867188 64.257812 41.988281 C 64.128906 39.558594 63.859375 34.503906 60.90625 29.125 C 59.195312 26.007812 56.839844 23.234375 53.898438 20.898438 L 55.726562 18.597656 C 58.972656 21.183594 61.578125 24.25 63.480469 27.714844 C 66.75 33.679688 67.046875 39.1875 67.1875 41.832031 C 67.78125 52.902344 66.988281 62.824219 66.148438 73.328125 C 65.839844 77.207031 65.523438 81.183594 65.261719 85.367188 C 64.917969 90.878906 64.488281 97.742188 64.621094 106.773438 C 64.753906 115.796875 65.398438 124.816406 66.535156 133.585938 C 68.164062 146.152344 70.113281 154.109375 70.753906 156.726562 C 71.09375 158.121094 71.167969 158.414062 70.816406 158.96875 Z M 70.816406 158.96875 "/>
<path style=" stroke:none;fill-rule:nonzero;fill:rgb(94.901961%,94.901961%,94.901961%);fill-opacity:1;" d="M 48.519531 25.5625 C 48.398438 25.5625 48.277344 25.558594 48.15625 25.550781 C 45.65625 25.414062 43.34375 23.917969 41.277344 21.101562 C 40.308594 19.777344 39.816406 18.265625 38.828125 15.253906 C 38.671875 14.789062 37.929688 12.433594 37.476562 9.191406 C 37.179688 7.070312 37.21875 6.183594 37.636719 5.402344 C 38.101562 4.53125 38.855469 3.921875 39.703125 3.511719 C 39.664062 3.230469 39.695312 2.941406 39.816406 2.648438 C 40.316406 1.421875 41.648438 1.582031 42.367188 1.660156 C 42.730469 1.707031 43.183594 1.765625 43.671875 1.742188 C 44.445312 1.703125 44.859375 1.472656 45.484375 1.128906 C 46.085938 0.800781 46.832031 0.390625 47.9375 0.164062 C 50.121094 -0.292969 51.949219 0.328125 52.554688 0.53125 C 55.726562 1.589844 57.289062 4.058594 59.101562 6.914062 C 59.460938 7.488281 60.699219 9.578125 61.515625 12.4375 C 62.105469 14.503906 62.023438 15.421875 61.847656 16.101562 C 61.484375 17.503906 60.632812 18.308594 58.46875 20.078125 C 56.210938 21.933594 55.074219 22.863281 54.101562 23.429688 C 51.835938 24.738281 50.410156 25.5625 48.519531 25.5625 Z M 48.519531 25.5625 "/>
<path style=" stroke:none;fill-rule:nonzero;fill:rgb(100%,100%,100%);fill-opacity:1;" d="M 276.316406 273.816406 L 358.117188 273.816406 C 371.976562 273.816406 383.210938 285.0625 383.210938 298.933594 L 383.210938 364.617188 C 383.210938 378.488281 371.976562 389.734375 358.117188 389.734375 L 276.316406 389.734375 C 262.457031 389.734375 251.222656 378.488281 251.222656 364.617188 L 251.222656 298.933594 C 251.222656 285.0625 262.457031 273.816406 276.316406 273.816406 Z M 276.316406 273.816406 "/>
<path style=" stroke:none;fill-rule:nonzero;fill:rgb(24.705882%,23.921569%,33.72549%);fill-opacity:1;" d="M 250.035156 364.023438 L 250.035156 298.339844 C 250.035156 284.164062 261.558594 272.628906 275.722656 272.628906 L 357.523438 272.628906 C 371.6875 272.628906 383.210938 284.164062 383.210938 298.339844 L 383.210938 364.023438 C 383.210938 378.199219 371.6875 389.734375 357.523438 389.734375 L 275.722656 389.734375 C 261.558594 389.734375 250.035156 378.199219 250.035156 364.023438 Z M 275.722656 273.816406 C 262.214844 273.816406 251.222656 284.816406 251.222656 298.339844 L 251.222656 364.023438 C 251.222656 377.542969 262.214844 388.542969 275.722656 388.542969 L 357.523438 388.542969 C 371.035156 388.542969 382.023438 377.542969 382.023438 364.023438 L 382.023438 298.339844 C 382.023438 284.816406 371.035156 273.816406 357.523438 273.816406 Z M 275.722656 273.816406 "/>
<path style=" stroke:none;fill-rule:nonzero;fill:rgb(91.764706%,26.27451%,20.784314%);fill-opacity:1;" d="M 327.628906 319.742188 L 329.648438 319.742188 L 335.402344 313.980469 L 335.683594 311.535156 C 324.976562 302.078125 308.636719 303.097656 299.1875 313.8125 C 296.5625 316.792969 294.65625 320.332031 293.617188 324.164062 C 294.257812 323.902344 294.96875 323.859375 295.636719 324.042969 L 307.140625 322.144531 C 307.140625 322.144531 307.726562 321.175781 308.03125 321.234375 C 313.148438 315.609375 321.761719 314.953125 327.671875 319.738281 L 327.628906 319.738281 Z M 327.628906 319.742188 "/>
<path style=" stroke:none;fill-rule:nonzero;fill:rgb(25.882353%,52.156863%,95.686275%);fill-opacity:1;" d="M 343.597656 324.164062 C 342.273438 319.289062 339.558594 314.910156 335.785156 311.558594 L 327.710938 319.640625 C 331.121094 322.429688 333.0625 326.628906 332.980469 331.035156 L 332.980469 332.46875 C 336.949219 332.46875 340.164062 335.691406 340.164062 339.664062 C 340.164062 343.636719 336.949219 346.855469 332.980469 346.855469 L 318.605469 346.855469 L 317.175781 348.3125 L 317.175781 356.9375 L 318.605469 358.375 L 332.980469 358.375 C 343.300781 358.453125 351.734375 350.140625 351.816406 339.808594 C 351.867188 333.546875 348.78125 327.675781 343.597656 324.164062 Z M 343.597656 324.164062 "/>
<path style=" stroke:none;fill-rule:nonzero;fill:rgb(20.392157%,65.882353%,32.54902%);fill-opacity:1;" d="M 304.214844 358.292969 L 318.585938 358.292969 L 318.585938 346.773438 L 304.214844 346.773438 C 303.191406 346.773438 302.179688 346.554688 301.246094 346.128906 L 299.230469 346.753906 L 293.433594 352.511719 L 292.929688 354.535156 C 296.179688 356.988281 300.144531 358.308594 304.214844 358.292969 Z M 304.214844 358.292969 "/>
<path style=" stroke:none;fill-rule:nonzero;fill:rgb(98.431373%,73.72549%,1.960784%);fill-opacity:1;" d="M 304.214844 320.933594 C 293.890625 320.992188 285.574219 329.421875 285.632812 339.753906 C 285.667969 345.523438 288.363281 350.957031 292.929688 354.472656 L 301.269531 346.128906 C 297.652344 344.492188 296.042969 340.230469 297.675781 336.613281 C 299.3125 332.992188 303.566406 331.382812 307.183594 333.019531 C 308.777344 333.738281 310.054688 335.015625 310.773438 336.613281 L 319.113281 328.265625 C 315.566406 323.625 310.054688 320.910156 304.214844 320.933594 Z M 304.214844 320.933594 "/>
<path style=" stroke:none;fill-rule:nonzero;fill:rgb(100%,100%,100%);fill-opacity:1;" d="M 286.996094 105.3125 L 368.796875 105.3125 C 382.65625 105.3125 393.890625 116.558594 393.890625 130.429688 L 393.890625 196.109375 C 393.890625 209.984375 382.65625 221.226562 368.796875 221.226562 L 286.996094 221.226562 C 273.136719 221.226562 261.902344 209.984375 261.902344 196.109375 L 261.902344 130.429688 C 261.902344 116.558594 273.136719 105.3125 286.996094 105.3125 Z M 286.996094 105.3125 "/>
<path style=" stroke:none;fill-rule:nonzero;fill:rgb(24.705882%,23.921569%,33.72549%);fill-opacity:1;" d="M 260.714844 195.515625 L 260.714844 129.835938 C 260.714844 115.65625 272.238281 104.121094 286.402344 104.121094 L 368.203125 104.121094 C 382.367188 104.121094 393.890625 115.65625 393.890625 129.835938 L 393.890625 195.515625 C 393.890625 209.695312 382.367188 221.226562 368.203125 221.226562 L 286.402344 221.226562 C 272.238281 221.226562 260.714844 209.695312 260.714844 195.515625 Z M 286.402344 105.3125 C 272.890625 105.3125 261.902344 116.3125 261.902344 129.835938 L 261.902344 195.515625 C 261.902344 209.039062 272.890625 220.039062 286.402344 220.039062 L 368.203125 220.039062 C 381.710938 220.039062 392.703125 209.039062 392.703125 195.515625 L 392.703125 129.835938 C 392.703125 116.3125 381.710938 105.3125 368.203125 105.3125 Z M 286.402344 105.3125 "/>
<use xlink:href="#surface5" mask="url(#mask0)"/>
<path style=" stroke:none;fill-rule:nonzero;fill:rgb(24.705882%,23.921569%,33.72549%);fill-opacity:1;" d="M 170.527344 394.617188 C 170.527344 395.011719 170.839844 395.328125 171.234375 395.328125 L 318.171875 395.328125 C 318.566406 395.328125 318.878906 395.011719 318.878906 394.617188 C 318.878906 394.429688 318.808594 394.261719 318.6875 394.136719 L 265.378906 394.136719 C 264.242188 394.136719 263.132812 394.058594 262.039062 393.910156 L 171.234375 393.910156 C 170.839844 393.910156 170.527344 394.226562 170.527344 394.617188 Z M 170.527344 394.617188 "/>
<path style=" stroke:none;fill-rule:nonzero;fill:rgb(100%,100%,100%);fill-opacity:1;" d="M 63.101562 271.285156 L 144.90625 271.285156 C 158.761719 271.285156 169.996094 282.53125 169.996094 296.402344 L 169.996094 362.085938 C 169.996094 375.957031 158.761719 387.203125 144.90625 387.203125 L 63.101562 387.203125 C 49.242188 387.203125 38.007812 375.957031 38.007812 362.085938 L 38.007812 296.402344 C 38.007812 282.53125 49.242188 271.285156 63.101562 271.285156 Z M 63.101562 271.285156 "/>
<path style=" stroke:none;fill-rule:nonzero;fill:rgb(24.705882%,23.921569%,33.72549%);fill-opacity:1;" d="M 37.414062 362.085938 L 37.414062 296.402344 C 37.414062 282.226562 48.9375 270.691406 63.101562 270.691406 L 144.90625 270.691406 C 159.070312 270.691406 170.589844 282.226562 170.589844 296.402344 L 170.589844 362.085938 C 170.589844 376.261719 159.070312 387.796875 144.90625 387.796875 L 63.101562 387.796875 C 48.9375 387.796875 37.414062 376.261719 37.414062 362.085938 Z M 63.101562 271.878906 C 49.59375 271.878906 38.605469 282.878906 38.605469 296.402344 L 38.605469 362.085938 C 38.605469 375.605469 49.59375 386.605469 63.101562 386.605469 L 144.90625 386.605469 C 158.414062 386.605469 169.402344 375.605469 169.402344 362.085938 L 169.402344 296.402344 C 169.402344 282.878906 158.414062 271.878906 144.90625 271.878906 Z M 63.101562 271.878906 "/>
<path style=" stroke:none;fill-rule:nonzero;fill:url(#linear0);" d="M 93.6875 300.042969 L 112.007812 300.042969 L 92.988281 356.453125 C 92.585938 357.640625 91.472656 358.441406 90.21875 358.441406 L 75.960938 358.441406 C 74.351562 358.441406 73.042969 357.136719 73.042969 355.523438 C 73.042969 355.207031 73.09375 354.890625 73.195312 354.589844 L 90.917969 302.03125 C 91.320312 300.84375 92.433594 300.042969 93.6875 300.042969 Z M 93.6875 300.042969 "/>
<path style=" stroke:none;fill-rule:nonzero;fill:rgb(0%,47.058824%,83.137255%);fill-opacity:1;" d="M 120.3125 337.878906 L 91.257812 337.878906 C 90.511719 337.878906 89.910156 338.480469 89.910156 339.222656 C 89.910156 339.597656 90.066406 339.957031 90.339844 340.210938 L 109.007812 357.652344 C 109.550781 358.160156 110.265625 358.441406 111.011719 358.441406 L 127.460938 358.441406 Z M 120.3125 337.878906 "/>
<path style=" stroke:none;fill-rule:nonzero;fill:url(#linear1);" d="M 93.6875 300.042969 C 92.417969 300.039062 91.292969 300.859375 90.910156 302.070312 L 73.21875 354.542969 C 72.675781 356.058594 73.460938 357.726562 74.976562 358.273438 C 75.296875 358.386719 75.632812 358.445312 75.96875 358.441406 L 90.597656 358.441406 C 91.707031 358.246094 92.621094 357.464844 92.996094 356.398438 L 96.523438 345.992188 L 109.125 357.757812 C 109.65625 358.195312 110.316406 358.4375 111.003906 358.441406 L 127.394531 358.441406 L 120.203125 337.878906 L 99.25 337.882812 L 112.074219 300.042969 Z M 93.6875 300.042969 "/>
<path style=" stroke:none;fill-rule:nonzero;fill:url(#linear2);" d="M 117.089844 302.03125 C 116.6875 300.84375 115.574219 300.042969 114.324219 300.042969 L 93.902344 300.042969 C 95.15625 300.042969 96.269531 300.84375 96.667969 302.03125 L 114.390625 354.589844 C 114.90625 356.117188 114.085938 357.773438 112.558594 358.289062 C 112.257812 358.390625 111.941406 358.445312 111.625 358.445312 L 132.046875 358.445312 C 133.65625 358.441406 134.964844 357.136719 134.964844 355.523438 C 134.964844 355.203125 134.910156 354.890625 134.808594 354.589844 Z M 117.089844 302.03125 "/>
<path style=" stroke:none;fill-rule:nonzero;fill:rgb(100%,100%,100%);fill-opacity:1;" d="M 25.855469 123.085938 L 107.65625 123.085938 C 121.515625 123.085938 132.75 134.332031 132.75 148.203125 L 132.75 213.882812 C 132.75 227.757812 121.515625 239 107.65625 239 L 25.855469 239 C 11.996094 239 0.761719 227.757812 0.761719 213.882812 L 0.761719 148.203125 C 0.761719 134.332031 11.996094 123.085938 25.855469 123.085938 Z M 25.855469 123.085938 "/>
<path style=" stroke:none;fill-rule:nonzero;fill:rgb(24.705882%,23.921569%,33.72549%);fill-opacity:1;" d="M 0.167969 213.882812 L 0.167969 148.203125 C 0.167969 134.023438 11.691406 122.488281 25.855469 122.488281 L 107.65625 122.488281 C 121.820312 122.488281 133.34375 134.023438 133.34375 148.203125 L 133.34375 213.882812 C 133.34375 228.0625 121.820312 239.597656 107.65625 239.597656 L 25.855469 239.597656 C 11.691406 239.597656 0.167969 228.0625 0.167969 213.882812 Z M 25.855469 123.679688 C 12.34375 123.679688 1.355469 134.679688 1.355469 148.203125 L 1.355469 213.882812 C 1.355469 227.40625 12.347656 238.40625 25.855469 238.40625 L 107.65625 238.40625 C 121.164062 238.40625 132.15625 227.40625 132.15625 213.882812 L 132.15625 148.203125 C 132.15625 134.679688 121.164062 123.679688 107.65625 123.679688 Z M 25.855469 123.679688 "/>
<path style=" stroke:none;fill-rule:nonzero;fill:rgb(14.509804%,18.431373%,24.313725%);fill-opacity:1;" d="M 50.417969 182.046875 C 50.417969 182.96875 50.515625 183.71875 50.691406 184.265625 C 50.890625 184.816406 51.140625 185.414062 51.488281 186.0625 C 51.613281 186.261719 51.664062 186.460938 51.664062 186.636719 C 51.664062 186.882812 51.511719 187.132812 51.191406 187.382812 L 49.621094 188.429688 C 49.398438 188.578125 49.171875 188.652344 48.972656 188.652344 C 48.722656 188.652344 48.476562 188.53125 48.226562 188.304688 C 47.878906 187.929688 47.578125 187.53125 47.328125 187.132812 C 47.082031 186.710938 46.832031 186.234375 46.558594 185.664062 C 44.613281 187.957031 42.175781 189.101562 39.234375 189.101562 C 37.144531 189.101562 35.476562 188.503906 34.253906 187.308594 C 33.035156 186.113281 32.414062 184.515625 32.414062 182.523438 C 32.414062 180.402344 33.160156 178.683594 34.679688 177.386719 C 36.199219 176.089844 38.214844 175.441406 40.78125 175.441406 C 41.625 175.441406 42.5 175.515625 43.417969 175.640625 C 44.339844 175.765625 45.289062 175.964844 46.285156 176.191406 L 46.285156 174.371094 C 46.285156 172.476562 45.886719 171.15625 45.113281 170.382812 C 44.316406 169.609375 42.972656 169.234375 41.054688 169.234375 C 40.183594 169.234375 39.285156 169.335938 38.363281 169.558594 C 37.441406 169.785156 36.546875 170.058594 35.675781 170.40625 C 35.277344 170.582031 34.976562 170.679688 34.804688 170.730469 C 34.628906 170.78125 34.503906 170.804688 34.40625 170.804688 C 34.054688 170.804688 33.882812 170.554688 33.882812 170.03125 L 33.882812 168.8125 C 33.882812 168.414062 33.929688 168.113281 34.054688 167.9375 C 34.179688 167.765625 34.40625 167.589844 34.753906 167.414062 C 35.625 166.964844 36.671875 166.59375 37.890625 166.292969 C 39.113281 165.96875 40.40625 165.820312 41.777344 165.820312 C 44.738281 165.820312 46.90625 166.492188 48.300781 167.839844 C 49.671875 169.183594 50.367188 171.230469 50.367188 173.972656 L 50.367188 182.046875 Z M 40.308594 185.835938 C 41.128906 185.835938 41.976562 185.6875 42.871094 185.386719 C 43.769531 185.089844 44.566406 184.539062 45.238281 183.792969 C 45.636719 183.320312 45.933594 182.796875 46.085938 182.199219 C 46.234375 181.597656 46.332031 180.875 46.332031 180.027344 L 46.332031 178.980469 C 45.613281 178.808594 44.839844 178.65625 44.042969 178.558594 C 43.246094 178.457031 42.472656 178.410156 41.703125 178.410156 C 40.03125 178.410156 38.8125 178.734375 37.992188 179.40625 C 37.167969 180.078125 36.769531 181.027344 36.769531 182.273438 C 36.769531 183.445312 37.070312 184.316406 37.691406 184.914062 C 38.289062 185.539062 39.160156 185.835938 40.308594 185.835938 Z M 60.304688 188.53125 C 59.855469 188.53125 59.558594 188.453125 59.359375 188.28125 C 59.160156 188.128906 58.984375 187.78125 58.835938 187.308594 L 52.984375 168.039062 C 52.832031 167.539062 52.757812 167.214844 52.757812 167.042969 C 52.757812 166.644531 52.957031 166.417969 53.355469 166.417969 L 55.796875 166.417969 C 56.269531 166.417969 56.59375 166.492188 56.769531 166.667969 C 56.96875 166.816406 57.117188 167.167969 57.265625 167.640625 L 61.449219 184.140625 L 65.335938 167.640625 C 65.460938 167.140625 65.609375 166.816406 65.808594 166.667969 C 66.007812 166.519531 66.355469 166.417969 66.804688 166.417969 L 68.796875 166.417969 C 69.269531 166.417969 69.59375 166.492188 69.792969 166.667969 C 69.992188 166.816406 70.167969 167.167969 70.265625 167.640625 L 74.199219 184.339844 L 78.507812 167.640625 C 78.660156 167.140625 78.832031 166.816406 79.007812 166.667969 C 79.207031 166.519531 79.53125 166.417969 79.980469 166.417969 L 82.292969 166.417969 C 82.691406 166.417969 82.917969 166.617188 82.917969 167.042969 C 82.917969 167.167969 82.890625 167.289062 82.867188 167.441406 C 82.84375 167.589844 82.792969 167.789062 82.691406 168.0625 L 76.691406 187.332031 C 76.542969 187.832031 76.367188 188.15625 76.167969 188.304688 C 75.96875 188.453125 75.644531 188.554688 75.222656 188.554688 L 73.082031 188.554688 C 72.605469 188.554688 72.285156 188.480469 72.085938 188.304688 C 71.886719 188.128906 71.710938 187.804688 71.609375 187.308594 L 67.75 171.230469 L 63.914062 187.28125 C 63.792969 187.78125 63.640625 188.105469 63.441406 188.28125 C 63.242188 188.453125 62.894531 188.53125 62.445312 188.53125 Z M 92.304688 189.203125 C 91.011719 189.203125 89.714844 189.054688 88.472656 188.753906 C 87.226562 188.453125 86.253906 188.128906 85.605469 187.757812 C 85.207031 187.53125 84.933594 187.28125 84.835938 187.058594 C 84.734375 186.835938 84.683594 186.585938 84.683594 186.359375 L 84.683594 185.089844 C 84.683594 184.566406 84.882812 184.316406 85.257812 184.316406 C 85.40625 184.316406 85.558594 184.339844 85.707031 184.390625 C 85.855469 184.441406 86.078125 184.539062 86.328125 184.640625 C 87.175781 185.015625 88.097656 185.3125 89.070312 185.511719 C 90.066406 185.710938 91.035156 185.8125 92.03125 185.8125 C 93.601562 185.8125 94.820312 185.539062 95.667969 184.988281 C 96.515625 184.441406 96.964844 183.644531 96.964844 182.621094 C 96.964844 181.921875 96.738281 181.351562 96.289062 180.875 C 95.84375 180.402344 94.996094 179.980469 93.773438 179.582031 L 90.164062 178.457031 C 88.347656 177.886719 87 177.039062 86.179688 175.914062 C 85.359375 174.820312 84.933594 173.597656 84.933594 172.300781 C 84.933594 171.253906 85.160156 170.332031 85.605469 169.535156 C 86.054688 168.738281 86.652344 168.039062 87.398438 167.488281 C 88.148438 166.917969 88.992188 166.492188 89.988281 166.195312 C 90.984375 165.894531 92.03125 165.769531 93.128906 165.769531 C 93.675781 165.769531 94.25 165.796875 94.796875 165.871094 C 95.367188 165.945312 95.890625 166.042969 96.414062 166.144531 C 96.914062 166.269531 97.386719 166.394531 97.835938 166.542969 C 98.28125 166.691406 98.632812 166.84375 98.878906 166.992188 C 99.230469 167.191406 99.476562 167.390625 99.628906 167.613281 C 99.777344 167.8125 99.851562 168.089844 99.851562 168.4375 L 99.851562 169.609375 C 99.851562 170.132812 99.652344 170.40625 99.277344 170.40625 C 99.078125 170.40625 98.757812 170.308594 98.332031 170.109375 C 96.914062 169.460938 95.320312 169.136719 93.550781 169.136719 C 92.132812 169.136719 91.011719 169.359375 90.238281 169.832031 C 89.46875 170.308594 89.070312 171.03125 89.070312 172.050781 C 89.070312 172.75 89.316406 173.347656 89.816406 173.820312 C 90.3125 174.296875 91.234375 174.769531 92.554688 175.191406 L 96.089844 176.316406 C 97.882812 176.886719 99.179688 177.6875 99.953125 178.707031 C 100.722656 179.730469 101.097656 180.902344 101.097656 182.199219 C 101.097656 183.269531 100.871094 184.242188 100.449219 185.089844 C 100 185.9375 99.402344 186.683594 98.632812 187.28125 C 97.859375 187.90625 96.9375 188.355469 95.867188 188.679688 C 94.746094 189.027344 93.574219 189.203125 92.304688 189.203125 Z M 92.304688 189.203125 "/>
<path style=" stroke:none;fill-rule:evenodd;fill:rgb(100%,60%,0%);fill-opacity:1;" d="M 97.011719 201.316406 C 88.820312 207.375 76.914062 210.589844 66.679688 210.589844 C 52.335938 210.589844 39.410156 205.28125 29.648438 196.457031 C 28.875 195.757812 29.574219 194.8125 30.496094 195.359375 C 41.054688 201.492188 54.078125 205.207031 67.550781 205.207031 C 76.640625 205.207031 86.628906 203.3125 95.816406 199.421875 C 97.1875 198.800781 98.359375 200.320312 97.011719 201.316406 Z M 97.011719 201.316406 "/>
<path style=" stroke:none;fill-rule:evenodd;fill:rgb(100%,60%,0%);fill-opacity:1;" d="M 100.425781 197.429688 C 99.378906 196.082031 93.5 196.78125 90.835938 197.105469 C 90.039062 197.203125 89.914062 196.507812 90.636719 195.984375 C 95.320312 192.691406 103.015625 193.640625 103.910156 194.738281 C 104.808594 195.859375 103.660156 203.5625 99.277344 207.25 C 98.605469 207.824219 97.960938 207.523438 98.257812 206.777344 C 99.253906 204.308594 101.46875 198.75 100.425781 197.429688 Z M 100.425781 197.429688 "/>
<path style=" stroke:none;fill-rule:nonzero;fill:rgb(100%,71.372549%,71.372549%);fill-opacity:1;" d="M 223.332031 169.34375 C 222.738281 168.75 217.984375 156.257812 217.984375 156.257812 L 206.695312 155.664062 L 201.527344 167.855469 Z M 223.332031 169.34375 "/>
<path style=" stroke:none;fill-rule:nonzero;fill:rgb(100%,71.372549%,71.372549%);fill-opacity:1;" d="M 227.535156 145.578125 C 227.535156 153.976562 220.734375 160.789062 212.339844 160.789062 C 203.945312 160.789062 197.144531 153.976562 197.144531 145.578125 C 197.144531 137.175781 203.945312 130.367188 212.339844 130.367188 C 220.734375 130.367188 227.535156 137.175781 227.535156 145.578125 Z M 227.535156 145.578125 "/>
<path style=" stroke:none;fill-rule:nonzero;fill:rgb(18.431373%,18.039216%,25.490196%);fill-opacity:1;" d="M 216.910156 371.796875 L 211.710938 293.878906 L 205.769531 320.644531 L 236.074219 359.304688 L 228.347656 368.226562 L 184.675781 325.699219 L 185.566406 259.976562 L 189.132812 249.867188 L 235.480469 250.460938 L 240.828125 268.304688 L 226.566406 371.796875 Z M 216.910156 371.796875 "/>
<path style=" stroke:none;fill-rule:nonzero;fill:rgb(18.431373%,18.039216%,25.490196%);fill-opacity:1;" d="M 226.335938 155.558594 L 225.148438 155.617188 C 225.148438 155.617188 224.089844 146.140625 223.464844 145.578125 C 222.84375 145.011719 221.714844 146.257812 221.714844 146.257812 C 221.714844 146.257812 216.820312 143.523438 216.675781 140.550781 C 216.527344 137.582031 216.410156 135.207031 214.628906 135.292969 C 212.851562 135.382812 202.878906 138.253906 200.503906 138.371094 C 198.128906 138.488281 194.363281 134.507812 198.34375 130.738281 C 202.324219 126.96875 205.824219 125.605469 206.390625 124.980469 C 206.953125 124.359375 210.667969 121.792969 213.914062 124.015625 C 217.160156 126.234375 221.3125 126.03125 221.3125 126.03125 C 221.3125 126.03125 229.117188 127.433594 228.105469 131.054688 C 227.09375 134.679688 231.003906 141.632812 229.398438 145.285156 C 227.796875 148.9375 226.335938 155.558594 226.335938 155.558594 Z M 226.335938 155.558594 "/>
<path style=" stroke:none;fill-rule:nonzero;fill:rgb(18.431373%,18.039216%,25.490196%);fill-opacity:1;" d="M 217.09375 368.753906 L 227.789062 369.941406 L 228.976562 389.570312 C 228.976562 389.570312 228.382812 399.085938 218.28125 397.898438 C 208.179688 396.707031 211.152344 387.191406 211.152344 387.191406 Z M 217.09375 368.753906 "/>
<path style=" stroke:none;fill-rule:nonzero;fill:rgb(18.431373%,18.039216%,25.490196%);fill-opacity:1;" d="M 230.429688 352.890625 C 230.429688 352.890625 238.152344 349.320312 239.339844 353.484375 L 241.71875 361.8125 C 241.71875 361.8125 241.71875 370.136719 242.3125 370.734375 C 242.90625 371.328125 254.195312 386.792969 244.09375 395.117188 C 244.09375 395.117188 238.746094 395.714844 235.777344 387.386719 C 232.804688 379.058594 223.890625 370.734375 223.890625 370.734375 C 223.890625 370.734375 222.164062 366.570312 225.109375 366.867188 C 228.050781 367.164062 232.210938 360.027344 231.023438 357.648438 C 229.832031 355.269531 230.429688 352.890625 230.429688 352.890625 Z M 230.429688 352.890625 "/>
<path style=" stroke:none;fill-rule:nonzero;fill:rgb(100%,71.372549%,71.372549%);fill-opacity:1;" d="M 132.953125 280.84375 C 130.1875 279.679688 129.429688 275.210938 131.261719 270.859375 C 131.96875 269.113281 133.082031 267.558594 134.511719 266.332031 L 136.648438 261.429688 L 136.574219 261.378906 L 142.710938 236.882812 C 144.140625 231.1875 148.070312 226.382812 153.46875 224.085938 C 156.679688 222.71875 159.726562 222.472656 160.613281 225.746094 C 162.082031 231.179688 152.507812 248.6875 146.734375 258.539062 L 142.234375 269.585938 C 142.355469 271.46875 142.027344 273.351562 141.269531 275.082031 C 139.441406 279.429688 135.71875 282.011719 132.953125 280.84375 Z M 132.953125 280.84375 "/>
<path style=" stroke:none;fill-rule:nonzero;fill:rgb(7.058824%,68.627451%,98.039216%);fill-opacity:1;" d="M 201.3125 163.886719 L 220.921875 164.484375 L 239.933594 172.808594 L 236.964844 222.175781 C 236.964844 222.175781 240.53125 233.476562 238.746094 235.261719 C 236.964844 237.046875 238.746094 245.042969 237.558594 245.207031 C 236.371094 245.371094 237.558594 253.976562 237.558594 253.976562 C 237.558594 253.976562 220.921875 248.347656 206.660156 251.914062 C 192.398438 255.484375 187.644531 249.535156 187.644531 249.535156 C 187.644531 249.535156 184.082031 235.261719 184.082031 232.285156 L 184.082031 171.476562 Z M 201.3125 163.886719 "/>
<path style=" stroke:none;fill-rule:nonzero;fill:rgb(7.058824%,68.627451%,98.039216%);fill-opacity:1;" d="M 189.234375 171.953125 C 189.234375 171.953125 180.914062 169.574219 176.753906 175.519531 C 172.597656 181.46875 170.21875 181.46875 170.21875 189.199219 C 170.21875 189.199219 145.855469 223.695312 147.046875 227.265625 L 141.402344 236.484375 L 155.660156 244.214844 C 155.660156 244.214844 160.710938 239.160156 160.710938 234.402344 C 160.710938 229.644531 174.972656 216.558594 174.972656 216.558594 C 174.972656 216.558594 187.449219 200.5 188.046875 194.554688 C 188.640625 188.605469 189.234375 171.953125 189.234375 171.953125 Z M 189.234375 171.953125 "/>
<path style=" stroke:none;fill-rule:nonzero;fill:rgb(100%,71.372549%,71.372549%);fill-opacity:1;" d="M 255.007812 292.417969 C 258.003906 292.257812 260.234375 288.3125 259.984375 283.601562 C 259.914062 281.714844 259.390625 279.875 258.460938 278.234375 L 258.117188 272.898438 L 258.207031 272.875 L 260.734375 247.75 C 261.324219 241.90625 259.253906 236.050781 254.957031 232.058594 C 252.398438 229.679688 249.617188 228.414062 247.671875 231.191406 C 244.445312 235.804688 247.519531 255.527344 249.609375 266.753906 L 250.09375 278.675781 C 249.34375 280.402344 249.015625 282.289062 249.140625 284.171875 C 249.386719 288.882812 252.011719 292.574219 255.007812 292.417969 Z M 255.007812 292.417969 "/>
<path style=" stroke:none;fill-rule:nonzero;fill:rgb(7.058824%,68.627451%,93.72549%);fill-opacity:1;" d="M 239.320312 173.660156 C 239.320312 173.660156 247.953125 174.25 249.847656 181.257812 C 251.742188 188.265625 253.980469 189.070312 251.359375 196.34375 C 251.359375 196.34375 262.578125 237.070312 260.25 240.023438 L 262.433594 250.613281 L 246.398438 253.042969 C 246.398438 253.042969 243.359375 246.570312 244.972656 242.09375 C 246.585938 237.617188 237.609375 220.464844 237.609375 220.464844 C 237.609375 220.464844 231.316406 201.121094 232.773438 195.324219 C 234.230469 189.527344 239.320312 173.660156 239.320312 173.660156 Z M 239.320312 173.660156 "/>
</g>
</svg>
